<?xml version="1.0" encoding="utf-8"?>
<!-- Generator: Adobe Illustrator 23.0.3, SVG Export Plug-In . SVG Version: 6.00 Build 0)  -->
<svg version="1.1" id="Layer_1" xmlns="http://www.w3.org/2000/svg" xmlns:xlink="http://www.w3.org/1999/xlink" x="0px" y="0px"
	 viewBox="0 0 841.89 1190.55" style="enable-background:new 0 0 841.89 1190.55;" xml:space="preserve">
<style type="text/css">
	.st0{fill:#FFFFFF;}
</style>
<g>
	<path class="st0" d="M769.42,238.43c0,0.16,0,0.32,0,0.48c-0.46,1.94-0.84,3.9-1.39,5.82c-0.75,2.61-1.62,5.19-2.44,7.78
		c-27.99,88-55.98,176-83.95,264.01c-1.93,6.07-4.71,11.69-8.37,16.91c-14.04,20.05-28.01,40.14-42.05,60.2
		c-40.36,57.66-80.74,115.32-121.11,172.97c-0.37,0.52-0.75,1.05-1.02,1.62c-0.75,1.57-0.47,2.75,0.97,3.76
		c0.78,0.55,1.66,0.96,2.53,1.36c37.56,17.63,75.11,35.27,112.68,52.87c13.25,6.21,26.53,12.34,39.78,18.52
		c0.86,0.4,1.71,0.9,2.44,1.5c1.34,1.11,2.04,2.68,1.4,4.29c-1.09,2.73-2.39,5.4-3.8,7.98c-0.77,1.41-2.22,1.78-3.77,1.2
		c-1.49-0.56-2.99-1.13-4.43-1.81c-25.26-11.85-50.51-23.71-75.76-35.58c-25.18-11.84-50.35-23.68-75.52-35.55
		c-1.78-0.84-3.55-1.46-5.53-1.13c-2.63,0.44-4.84,1.69-6.56,3.68c-2.69,3.11-3.51,6.52,1.15,9.58
		c15.65,10.26,31.19,20.69,46.78,31.05c32.1,21.34,64.21,42.68,96.31,64.02c0.66,0.44,1.34,0.89,1.91,1.44
		c1.73,1.64,2.09,3.37,0.87,5.4c-1.36,2.26-2.86,4.44-4.45,6.54c-1.43,1.88-2.43,2.02-4.57,0.8c-1.74-0.99-3.39-2.11-5.06-3.22
		c-46-30.63-91.99-61.27-138.01-91.87c-1.72-1.14-3.63-2-5.48-2.94c-1.12-0.57-2.08-0.33-3.01,0.61c-2.22,2.25-3.89,4.85-5.27,7.68
		c-0.48,0.98-0.44,1.91,0.16,2.71c1.04,1.4,2.07,2.87,3.34,4.05c12.89,11.98,25.8,23.94,38.76,35.85
		c26.98,24.78,54.01,49.52,81,74.3c1.29,1.18,2.53,2.48,3.5,3.92c2.48,3.66,1.9,7.16-1.48,9.99c-0.55,0.46-1.17,0.83-1.76,1.25
		c-1.51,1.09-3.18,1.21-4.76,0.38c-1.32-0.69-2.59-1.58-3.7-2.59c-21.99-20.05-43.98-40.1-65.9-60.22
		c-18.56-17.04-37.04-34.17-55.56-51.25c-0.53-0.49-1.05-0.98-1.61-1.43c-2.21-1.79-3.14-1.69-4.97,0.57
		c-0.65,0.81-1.24,1.67-1.84,2.52c-11.52,16.44-23.04,32.89-34.56,49.32c-0.87,1.24-1.74,2.49-2.71,3.67
		c-2.13,2.6-3.33,2.6-5.51-0.05c-1.16-1.42-2.22-2.93-3.28-4.43c-10.84-15.35-21.67-30.72-32.52-46.07
		c-0.88-1.24-1.77-2.48-2.8-3.58c-1.02-1.1-1.95-1.18-3.22-0.33c-1.06,0.71-2.03,1.55-2.97,2.42
		c-39.83,36.58-79.65,73.16-119.48,109.74c-0.76,0.7-1.54,1.42-2.39,2c-2.12,1.44-3.82,1.42-5.62-0.39
		c-1.79-1.81-3.43-3.8-4.95-5.85c-1.32-1.77-1.17-2.89,0.31-4.5c1.08-1.17,2.27-2.25,3.45-3.33c30.04-27.61,60.08-55.2,90.12-82.81
		c9.6-8.82,19.19-17.66,28.74-26.54c1.33-1.24,2.44-2.74,3.54-4.19c0.78-1.03,0.92-2.2,0.07-3.33c-1.97-2.61-3.93-5.22-5.9-7.83
		c-0.75-0.99-1.72-1.13-2.76-0.57c-1.55,0.83-3.13,1.62-4.59,2.59c-13,8.61-25.99,17.25-38.96,25.9
		c-32.88,21.91-65.75,43.82-98.63,65.73c-1.39,0.93-2.81,1.85-4.3,2.6c-1.77,0.89-2.77,0.72-4.05-0.79
		c-1.29-1.52-2.43-3.17-3.54-4.83c-2.9-4.32-2.7-5.37,1.62-8.31c4.7-3.19,9.44-6.31,14.16-9.46
		c41.44-27.66,82.88-55.32,124.33-82.97c1.39-0.93,2.92-1.65,4.34-2.55c1.78-1.13,2.22-2.32,1.18-4.03
		c-1.66-2.73-3.48-5.36-5.33-7.97c-1.11-1.55-2.67-1.94-4.46-1.12c-1.02,0.46-2.06,0.87-3.07,1.35
		c-50.25,23.52-100.49,47.04-150.74,70.55c-1.23,0.57-2.47,1.15-3.76,1.56c-1.6,0.51-3.11,0.18-3.96-1.37
		c-1.27-2.3-2.56-4.62-3.5-7.06c-0.92-2.4-0.14-4.12,2.05-5.53c0.8-0.52,1.68-0.92,2.55-1.33c48.95-22.9,97.9-45.79,146.85-68.69
		c1.52-0.71,3.05-1.43,4.47-2.31c1.66-1.03,1.88-1.91,0.95-3.63c-0.8-1.47-1.76-2.86-2.73-4.23c-17.8-25.23-35.61-50.45-53.41-75.67
		c-37.58-53.26-75.15-106.54-112.74-159.79c-3.03-4.3-5.24-8.94-6.74-13.97c-22.67-75.84-45.37-151.67-68.03-227.51
		c-4.74-15.86-9.34-31.75-14.03-47.62c-0.15-0.51-0.55-0.94-0.83-1.41c0-0.16,0-0.32,0-0.48c1.4-0.6,2.65-0.45,3.92,0.47
		c1.49,1.07,3.13,1.93,4.66,2.94c52.7,34.97,105.4,69.94,158.08,104.93c23.05,15.31,46.09,30.62,69.06,46.04
		c5.11,3.43,10.02,3.77,15.53,1.01c30.01-15.04,60.09-29.93,90.11-44.97c4.82-2.41,9.34-2.55,14.2-0.15
		c24.22,11.97,48.49,23.82,72.74,35.73c6.6,3.24,13.2,6.49,19.77,9.78c4.24,2.13,8.3,1.96,12.25-0.7c0.4-0.27,0.81-0.52,1.2-0.79
		c52.3-34.71,104.58-69.43,156.89-104.12c23.99-15.91,48.02-31.76,72.05-47.59C764.98,240.62,767.26,239.6,769.42,238.43z
		 M359.58,601.09c0.09-0.14,0.18-0.28,0.28-0.42c-0.39-0.39-0.72-0.85-1.17-1.16c-2.1-1.47-4.25-2.86-6.34-4.33
		c-17.09-12.05-29.51-27.74-36.76-47.41c-4.03-10.93-5.81-22.25-5.65-33.89c0.02-1.27-0.07-2.57-0.3-3.81
		c-0.3-1.59-1.04-2.13-2.52-1.8c-1.24,0.28-2.45,0.75-3.6,1.27c-5.17,2.34-10.34,4.68-15.46,7.12c-9.69,4.63-19.08,9.82-27.45,16.59
		c-4.47,3.61-8.67,7.57-12.74,11.63c-2.73,2.71-2.33,4.96,0.83,7.13c3.56,2.44,7.06,5.02,10.84,7.08
		c8.48,4.64,16.98,9.29,25.72,13.41c23.6,11.13,48.13,19.93,72.81,28.31C358.55,600.97,359.08,601,359.58,601.09z M533.22,507.8
		c0,1.03,0.03,1.58-0.01,2.13c-0.45,6.21-0.58,12.47-1.42,18.63c-2.19,15.96-8.03,30.53-17.54,43.59
		c-7.61,10.45-16.99,19.06-27.59,26.4c-0.66,0.46-1.3,0.96-1.95,1.44c0.94,0.09,1.7-0.13,2.45-0.36
		c24.04-7.52,47.48-16.65,70.41-27.06c12.02-5.46,23.61-11.74,34.56-19.15c1.32-0.89,2.59-1.89,3.71-3.01
		c1.24-1.23,1.31-2.42,0.41-3.92c-0.53-0.88-1.17-1.74-1.9-2.46c-1.99-1.96-3.98-3.94-6.1-5.75c-14.97-12.84-31.98-22.2-50.32-29.24
		C536.54,508.5,535.03,508.26,533.22,507.8z"/>
</g>
</svg>
